<svg width="14" height="16" viewBox="0 0 14 16" fill="none" xmlns="http://www.w3.org/2000/svg">
<path d="M5.60344 1.57737C4.48885 1.57737 3.41991 2.07622 2.63177 2.96417C1.84363 3.85213 1.40086 5.05645 1.40086 6.31221C1.40086 7.56796 1.84363 8.77228 2.63177 9.66024C3.41991 10.5482 4.48885 11.047 5.60344 11.047C6.71804 11.047 7.78698 10.5482 8.57512 9.66024C9.36325 8.77228 9.80602 7.56796 9.80602 6.31221C9.80602 5.05645 9.36325 3.85213 8.57512 2.96417C7.78698 2.07622 6.71804 1.57737 5.60344 1.57737ZM3.46126e-08 6.31221C0.000127707 5.30752 0.213084 4.31738 0.621169 3.42407C1.02925 2.53076 1.62068 1.76008 2.3463 1.17608C3.07193 0.592088 3.91078 0.211639 4.79315 0.0663557C5.67553 -0.0789272 6.57593 0.0151521 7.41955 0.340775C8.26316 0.666398 9.02561 1.21416 9.64353 1.93854C10.2614 2.66291 10.717 3.54299 10.9723 4.50561C11.2276 5.46824 11.2753 6.48562 11.1115 7.47319C10.9476 8.46077 10.5769 9.39002 10.0302 10.1837L13.8034 14.4348C13.931 14.5836 14.0016 14.783 14 14.9899C13.9984 15.1968 13.9247 15.3947 13.7948 15.541C13.665 15.6874 13.4893 15.7703 13.3057 15.7721C13.122 15.7739 12.9451 15.6944 12.813 15.5507L9.03975 11.2996C8.21146 12.0241 7.21935 12.4722 6.17623 12.5929C5.13311 12.7137 4.08084 12.5023 3.13908 11.9827C2.19732 11.4631 1.40387 10.6562 0.848939 9.65381C0.294012 8.65138 -0.000116496 7.49363 3.46126e-08 6.31221Z" fill="white"/>
</svg>
